<?xml version="1.0" encoding="UTF-8" standalone="no"?>
<!-- Generator: Adobe Illustrator 18.1.1, SVG Export Plug-In . SVG Version: 6.00 Build 0)  -->

<svg
   version="1.1"
   id="Camada_1"
   x="0px"
   y="0px"
   viewBox="0 0 28.695999 30"
   enable-background="new 0 0 100 50"
   xml:space="preserve"
   sodipodi:docname="logo2.svg"
   width="28.695999"
   height="30"
   inkscape:version="1.2-alpha1 (1864d2ef, 2022-02-26)"
   xmlns:inkscape="http://www.inkscape.org/namespaces/inkscape"
   xmlns:sodipodi="http://sodipodi.sourceforge.net/DTD/sodipodi-0.dtd"
   xmlns="http://www.w3.org/2000/svg"
   xmlns:svg="http://www.w3.org/2000/svg"><defs
   id="defs156" /><sodipodi:namedview
   id="namedview154"
   pagecolor="#ffffff"
   bordercolor="#000000"
   borderopacity="0.25"
   inkscape:pageshadow="2"
   inkscape:pageopacity="0.0"
   inkscape:pagecheckerboard="0"
   inkscape:deskcolor="#d1d1d1"
   showgrid="false"
   inkscape:zoom="8"
   inkscape:cx="37.875"
   inkscape:cy="24.125"
   inkscape:window-width="1366"
   inkscape:window-height="697"
   inkscape:window-x="-8"
   inkscape:window-y="-8"
   inkscape:window-maximized="1"
   inkscape:current-layer="Camada_1"
   inkscape:showpageshadow="2" />

<g
   id="g9441"
   transform="matrix(0.99705577,0,0,0.99304866,-70.882541,-9.8013903)"><path
     fill="#D02E00"
     d="m 845.1,5019.5 c -17,-5.9 -32.5,-27.8 -42.5,-60.3 -2.1,-6.9 -2.7,-8.2 -3.7,-8.1 -21.1,2.1 -40,1.9 -50.9,-0.4 -13.1,-2.8 -21.4,-6.6 -28.1,-13 -12.7,-12.2 -11.9,-30.4 2.2,-50.9 3.6,-5.2 3.6,-5.2 2.7,-7.4 -1.5,-3.5 -1.2,-8 0.7,-11.8 3.3,-6.4 11.3,-9.6 17.7,-7 l 2.2,1 4.8,-3.9 c 2.6,-2.1 5.2,-4.3 5.6,-4.6 0.7,-0.6 0.3,-1.8 -2.2,-5.9 -1.7,-2.8 -4.9,-8.8 -7.2,-13.5 -19.5,-40 -14.6,-68.9 12.9,-76.2 5.6,-1.5 17.9,-1.5 25.8,0 3.3,0.6 9.8,2.3 14.7,3.8 6.6,2 8.9,2.5 9.1,1.9 0.1,-0.5 1.9,-4.1 3.9,-8.1 4.8,-9.7 9.6,-16.8 15.4,-22.7 9,-9.4 16.8,-13.2 26.7,-13.2 9.9,0 17.4,3.6 26.2,12.7 l 4.9,5 5.3,0.1 c 4.6,0.1 5.6,0.3 8,1.8 7.3,4.8 8.7,15.1 2.9,21.8 l -1.6,1.9 2.2,5.6 c 1.2,3.2 3.2,9.2 4.5,13.4 2,6.5 2.6,7.7 3.6,7.6 21.2,-2.1 40,-1.9 50.9,0.5 18.8,3.9 30.5,11.9 35.3,23.7 2.1,5.4 2.2,14.8 0.1,21.5 -1.9,6 -6.2,14.1 -11.1,20.9 -4.8,6.6 -18.1,20.1 -26.4,26.9 -3.5,2.9 -6.5,5.4 -6.5,5.5 0,0.1 1.4,2.5 3.1,5.2 1.6,2.8 4.8,8.8 7.1,13.4 19.5,40 14.5,69.4 -13,76.2 -3.9,1 -4.3,1.2 -5.4,3.5 -4.5,9.9 -18.3,11.4 -25,2.7 -1.1,-1.4 -2.2,-3.8 -2.5,-5.2 l -0.4,-2.5 -7.4,-2.4 c -4.1,-1.3 -7.7,-2.3 -8,-2.3 -0.3,0 -2.2,3.4 -4.1,7.5 -4.8,9.9 -10,17.8 -16.1,24.1 -9,9.3 -16.5,13 -26.5,13 -4.2,-0.3 -6.7,-0.6 -9.9,-1.8 z m 20.6,-7.7 c 9.8,-4.8 19.6,-16.9 26.9,-33.3 l 2.2,-4.9 -9.9,-4.9 c -11.6,-5.7 -24.4,-13.4 -35.4,-21 l -7.8,-5.6 -10.9,2.6 c -6,1.4 -13.4,3.1 -16.4,3.7 -3.1,0.6 -5.9,1.2 -6.4,1.3 -1.6,0.5 5.5,21.2 11.3,32.7 13.5,27 29.9,37.4 46.4,29.4 z m 89.4,-37.9 c 5,-2.5 9.4,-7.2 11.4,-12.1 2,-5.2 2.4,-15.9 0.9,-23.8 -2.2,-11.2 -8.2,-25.9 -16.1,-39.8 -1.9,-3.3 -3.5,-6.1 -3.6,-6.2 -0.1,-0.1 -3.4,2 -7.4,4.7 -4,2.6 -10.7,6.9 -14.9,9.4 -4.2,2.5 -7.8,4.6 -7.9,4.7 -0.1,0.1 -0.9,4.4 -1.6,9.6 -1.8,12.6 -5.2,28.1 -8.5,38.7 -1.5,4.8 -2.8,9.2 -3,9.7 -0.2,0.8 1.2,1.5 5.9,3.1 3.5,1.2 6.7,2.1 7.1,2.1 0.5,0 1.9,-1.2 3,-2.5 6.6,-8.1 19.6,-6.6 24.5,2.8 1.2,2.3 1.4,2.5 3.7,2.1 1.3,-0.3 4.2,-1.4 6.5,-2.5 z m -55.5,-13.3 c 4.1,-12.5 10.9,-43.9 9.8,-45 -0.2,-0.1 -4.6,1.8 -9.8,4.3 -12,5.7 -26.3,11.6 -39.1,16.1 -5.5,1.9 -10,3.7 -10,3.9 0,0.3 13.8,9.4 21,13.9 3.3,2 25,13.1 25.7,13.2 0.2,-0.2 1.3,-3 2.4,-6.4 z m -106,-15.7 c 2.5,-0.3 4.6,-0.7 4.7,-0.8 0.1,-0.1 -0.3,-2.6 -1,-5.7 -1.6,-7 -4.2,-24.6 -5.2,-34.1 l -0.7,-7.4 -6.6,-7.5 c -6.8,-7.7 -18.4,-22.7 -21.8,-28 -1.1,-1.7 -2.2,-3 -2.4,-3.1 -0.9,0 -9.4,7.3 -9.2,8 0.1,0.4 0.6,2.3 1.1,4.2 3.1,10.8 -7.2,20.6 -18.3,17.2 -3.3,-1 -3.3,-1 -4.7,0.6 -3,3.7 -7.7,12.1 -9.5,17.2 -2.4,6.9 -2.6,14.1 -0.5,19.7 3.8,10.1 18.5,17.8 38.2,20.1 6,0.9 29.2,0.5 35.9,-0.4 z m 19.1,-2.9 c 2.9,-0.6 9,-1.9 13.7,-3 l 8.5,-2 -1.6,-1.2 c -6.1,-4.8 -18.6,-15.7 -25.6,-22.4 -6.3,-5.9 -8.4,-7.6 -8.4,-6.6 0,2.5 2.7,19.8 4.3,27.7 0.9,4.3 1.6,8.1 1.6,8.3 0,0.3 2,0.2 7.5,-0.8 z m 43.3,-11.6 c 14.9,-5.1 25.4,-9.4 40.7,-16.8 l 13.9,-6.6 0.4,-3.1 c 1.6,-12.1 2.2,-40.9 1.2,-53 l -0.5,-5.4 -6.9,-6.8 c -9.4,-9.3 -21,-19.8 -30.2,-27.1 l -7.7,-6.1 -8.7,2.8 c -14.1,4.6 -30,11 -44.9,18.2 l -13.9,6.6 -0.4,3.1 c -1.5,11.4 -2.2,41.1 -1.2,53.1 l 0.5,5.3 8.2,8.1 c 9.4,9.4 19.7,18.5 29.5,26.3 5.7,4.5 7.1,5.4 8.5,5.1 0.9,-0.2 6.1,-1.9 11.5,-3.7 z m 66.8,-30.5 c 7.6,-4.5 20.7,-13.3 20.7,-13.9 0,-1 -9.8,-14.4 -17,-23.4 l -6.9,-8.5 -0.4,21.9 c -0.2,12.1 -0.6,22.9 -0.9,24.1 -0.3,1.1 -0.3,2.1 -0.1,2.1 0.3,0.1 2.4,-1 4.6,-2.3 z m -131.1,-60 c 0.3,-1.2 0.3,-2.1 -0.1,-2.1 -1.4,0 -25.1,15.4 -25.1,16.3 0,1 10,14.6 17,23.3 l 6.9,8.5 0.4,-21.9 c 0.2,-12.2 0.6,-23 0.9,-24.1 z m 166.9,34.6 c 14.4,-12.3 26.3,-27 30.8,-38.3 2.9,-7.2 3.4,-15.6 1.2,-21.4 -5.3,-14 -27.9,-21.9 -58.9,-20.7 -9.9,0.4 -19.5,1.2 -20,1.8 -0.1,0.1 0.3,2.6 1,5.7 1.6,7 4.2,24.6 5.2,34.1 l 0.7,7.4 6.6,7.5 c 6.8,7.8 18.4,22.7 21.8,28 1.1,1.7 2.4,3 2.8,2.9 0.5,-0.1 4.4,-3.2 8.8,-7 z m -188.8,-31.3 c 3.9,-2.6 10.6,-6.9 14.9,-9.4 4.2,-2.5 7.8,-4.6 7.9,-4.7 0.1,-0.1 0.9,-4.4 1.6,-9.6 1.8,-12.6 5.2,-28.1 8.5,-38.7 1.5,-4.8 2.8,-9.2 3,-9.7 0.2,-0.8 -1.3,-1.5 -7.1,-3.4 -23.9,-7.7 -41.6,-6.5 -50.6,3.5 -4.3,4.6 -5.8,9 -6.2,17.7 -0.5,11 2.1,21.8 8.8,36.7 2.5,5.6 11.4,22.3 11.9,22.3 0,0.2 3.3,-2 7.3,-4.7 z m 139.6,-20.1 c -1.3,-9.2 -4.5,-25.4 -5,-25.9 -0.4,-0.5 -9,1.2 -19.5,3.6 l -9.8,2.3 1.6,1.2 c 6.1,4.8 18.6,15.7 25.5,22.3 4.7,4.5 8.3,7.4 8.4,6.9 0.1,-0.5 -0.4,-5.2 -1.2,-10.4 z m -99.3,-2.7 c 12.4,-5.9 24.8,-11.1 37.9,-15.7 6.4,-2.3 11.5,-4.2 11.5,-4.4 0,-0.5 -18.9,-12.7 -24.6,-15.9 -4.5,-2.6 -21.6,-11.2 -22.2,-11.2 -1.2,0 -8.1,26 -10.6,39.4 -1.7,9.6 -2,12.5 -1.1,12.1 0.4,-0.1 4.5,-2.1 9.1,-4.3 z m 67.9,-24.9 c 4.8,-1.2 12.2,-2.8 16.3,-3.7 4.1,-0.8 7.7,-1.6 8,-1.8 0.5,-0.5 -3.1,-12.3 -6,-19.9 l -2.1,-5.4 h -3.3 c -6.2,0 -11.6,-4.1 -13.4,-10.3 -1.2,-4.1 -0.5,-8.5 1.8,-11.7 l 1.3,-1.9 -2.4,-2.8 c -3.7,-4.3 -8.8,-8.2 -13.4,-10.4 -3.7,-1.7 -5,-2 -9.9,-2 -5.1,0 -6,0.2 -10.5,2.4 -9.9,4.8 -19.2,16.3 -27,33.2 l -2.4,5 10,4.9 c 11.8,5.9 25.5,14.1 35.5,21.2 4,2.8 7.5,5.2 7.9,5.2 0.6,0.2 4.8,-0.8 9.6,-2 z"
     id="path145"
     style="fill:#6b2cff;fill-opacity:1;stroke:none;stroke-width:0;stroke-miterlimit:4;stroke-dasharray:none;stroke-opacity:1;paint-order:stroke fill markers"
     transform="matrix(0.1,0,0,-0.1,0,512)" /><path
     fill="#D02E00"
     d="m 850.2,4890.9 c -11.9,-3.7 -18.9,-15.7 -15.9,-27.4 5.3,-20.8 33.5,-23.7 43.5,-4.5 1.6,3.2 1.8,4.2 1.8,9.7 0,5.7 -0.2,6.5 -2.2,10.5 -3.7,7.6 -10.6,12 -19.3,12.5 -3.2,0.2 -5.8,-0.1 -7.9,-0.8 z"
     id="path147"
     style="fill:#6b2cff;fill-opacity:1;stroke:none;stroke-width:0;stroke-miterlimit:4;stroke-dasharray:none;stroke-opacity:1;paint-order:stroke fill markers"
     transform="matrix(0.1,0,0,-0.1,0,512)" /></g>
</svg>
