<?xml version="1.0" encoding="UTF-8" standalone="no"?>
<!-- Created with Inkscape (http://www.inkscape.org/) -->

<svg
   width="500"
   height="500"
   viewBox="0 0 132.29166 132.29167"
   version="1.1"
   id="svg5"
   inkscape:version="1.2-alpha1 (1864d2ef, 2022-02-26)"
   sodipodi:docname="MU.svg"
   xmlns:inkscape="http://www.inkscape.org/namespaces/inkscape"
   xmlns:sodipodi="http://sodipodi.sourceforge.net/DTD/sodipodi-0.dtd"
   xmlns="http://www.w3.org/2000/svg"
   xmlns:svg="http://www.w3.org/2000/svg">
  <sodipodi:namedview
     id="namedview7"
     pagecolor="#ffffff"
     bordercolor="#000000"
     borderopacity="0.25"
     inkscape:showpageshadow="2"
     inkscape:pageopacity="0.0"
     inkscape:pagecheckerboard="0"
     inkscape:deskcolor="#d1d1d1"
     inkscape:document-units="mm"
     showgrid="false"
     showguides="false"
     inkscape:zoom="1.4324916"
     inkscape:cx="264.22494"
     inkscape:cy="124.60806"
     inkscape:window-width="1377"
     inkscape:window-height="1040"
     inkscape:window-x="427"
     inkscape:window-y="15"
     inkscape:window-maximized="0"
     inkscape:current-layer="layer1"
     inkscape:pageshadow="2" />
  <defs
     id="defs2" />
  <g
     inkscape:label="Camada 1"
     inkscape:groupmode="layer"
     id="layer1">
    <rect
       style="fill:#7e36f4;stroke-width:0.264583"
       id="rect215"
       width="132.29167"
       height="132.29167"
       x="-5.5511151e-17"
       y="1.110223e-16" />
    <g
       id="g1612"
       transform="translate(-3.3378601e-7,3.1333488)">
      <g
         aria-label="M.U"
         id="text273"
         style="font-size:25.4px;stroke-width:0.264583">
        <path
           d="M 57.755652,57.257462 V 56.19086 h 0.08682 q 0.409277,0 0.731738,-0.04961 0.334864,-0.06201 0.558106,-0.223243 0.235644,-0.173632 0.37207,-0.483691 0.136426,-0.322461 0.161231,-0.843359 V 41.022794 l -5.8167,16.234668 h -1.37666 L 46.58114,41.072403 v 13.295312 q 0,0.595313 0.124023,0.954981 0.124024,0.359668 0.359668,0.558105 0.248047,0.186036 0.582911,0.248047 0.347265,0.06201 0.768945,0.06201 h 0.07441 v 1.066602 H 42.624792 V 56.19086 h 0.322461 q 0.42168,0 0.79375,-0.04961 0.384473,-0.06201 0.669727,-0.235645 0.285254,-0.173633 0.446484,-0.508496 0.173633,-0.347266 0.173633,-0.905371 V 41.915763 q 0,-0.558106 -0.173633,-0.892969 -0.16123,-0.347266 -0.446484,-0.533301 -0.285254,-0.186035 -0.669727,-0.235644 -0.37207,-0.06201 -0.79375,-0.06201 h -0.322461 v -1.066602 h 5.791895 l 5.258594,14.523145 5.208984,-14.523145 h 5.630664 v 1.066602 h -0.322461 q -0.434082,0 -0.818555,0.06201 -0.37207,0.06201 -0.657324,0.260449 -0.285254,0.186035 -0.446484,0.545703 -0.161231,0.359668 -0.161231,0.95498 v 12.352734 q 0,0.595313 0.161231,0.954981 0.16123,0.359668 0.446484,0.558105 0.285254,0.186036 0.657324,0.248047 0.384473,0.06201 0.818555,0.06201 h 0.322461 v 1.066602 z"
           style="font-family:'Noto Serif';-inkscape-font-specification:'Noto Serif'"
           id="path4454" />
        <path
           d="m 67.057409,55.707169 q 0,-0.496094 0.124023,-0.818555 0.124024,-0.334863 0.334864,-0.533301 0.223242,-0.198437 0.508496,-0.285254 0.297656,-0.08682 0.632519,-0.08682 0.322461,0 0.607715,0.08682 0.297656,0.08682 0.508496,0.285254 0.223242,0.198438 0.347266,0.533301 0.136426,0.322461 0.136426,0.818555 0,0.483691 -0.136426,0.818554 -0.124024,0.334864 -0.347266,0.533301 -0.21084,0.198438 -0.508496,0.285254 -0.285254,0.08682 -0.607715,0.08682 -0.334863,0 -0.632519,-0.08682 -0.285254,-0.08682 -0.508496,-0.285254 -0.21084,-0.198437 -0.334864,-0.533301 -0.124023,-0.334863 -0.124023,-0.818554 z"
           style="font-family:'Noto Serif';-inkscape-font-specification:'Noto Serif'"
           id="path4456" />
        <path
           d="m 81.022448,57.505508 q -1.500683,0 -2.691308,-0.310058 -1.190625,-0.322461 -2.021582,-1.00459 -0.818555,-0.694531 -1.252637,-1.773535 -0.434082,-1.091406 -0.434082,-2.641699 v -9.859863 q 0,-0.558106 -0.173633,-0.892969 -0.16123,-0.347266 -0.446484,-0.533301 -0.285254,-0.186035 -0.669727,-0.235644 -0.37207,-0.06201 -0.79375,-0.06201 h -0.322461 v -1.066602 h 7.391797 v 1.066602 h -0.334863 q -0.42168,0 -0.806153,0.06201 -0.384472,0.06201 -0.669726,0.260449 -0.272852,0.186035 -0.446484,0.545703 -0.161231,0.359668 -0.161231,0.95498 v 9.909473 q 0,1.103808 0.310059,1.885156 0.322461,0.768945 0.880566,1.252637 0.570508,0.483691 1.339453,0.706933 0.781348,0.223243 1.711524,0.223243 1.103808,0 1.897558,-0.297657 0.806152,-0.297656 1.327051,-0.818554 0.533301,-0.533301 0.781348,-1.252637 0.260449,-0.731738 0.260449,-1.599902 v -10.10791 q 0,-0.558106 -0.173633,-0.892969 -0.161231,-0.347266 -0.446484,-0.533301 -0.285254,-0.186035 -0.669727,-0.235644 -0.37207,-0.06201 -0.79375,-0.06201 h -0.322461 v -1.066602 h 6.374805 v 1.066602 h -0.334864 q -0.421679,0 -0.806152,0.06201 -0.384473,0.06201 -0.669726,0.260449 -0.272852,0.186035 -0.446485,0.545703 -0.16123,0.359668 -0.16123,0.95498 v 10.058301 q 0,1.265039 -0.409278,2.282031 -0.396875,1.00459 -1.190625,1.711524 -0.781347,0.694531 -1.947168,1.066601 -1.16582,0.37207 -2.678906,0.37207 z"
           style="font-family:'Noto Serif';-inkscape-font-specification:'Noto Serif'"
           id="path4458" />
      </g>
      <g
         aria-label="Movimento Uniforme"
         id="text273-3"
         style="font-size:11.2889px;font-family:'Noto Sans';-inkscape-font-specification:'Noto Sans';stroke-width:0.264583">
        <path
           d="m 13.703278,86.78685 -2.652892,-7.066852 h -0.04515 q 0.03387,0.349956 0.05644,0.948268 0.02258,0.587023 0.02258,1.23049 v 4.888094 h -0.936979 v -8.060275 h 1.501424 l 2.483558,6.604007 h 0.04516 l 2.528713,-6.604007 h 1.490135 v 8.060275 h -1.004712 v -4.955827 q 0,-0.587023 0.02258,-1.162757 0.03387,-0.575734 0.05644,-0.936979 h -0.04515 l -2.686759,7.055563 z"
           id="path4461" />
        <path
           d="m 25.511463,83.750136 q 0,1.501424 -0.767645,2.325513 -0.756357,0.82409 -2.05458,0.82409 -0.801512,0 -1.43369,-0.361245 -0.62089,-0.372534 -0.982135,-1.072445 -0.361245,-0.711201 -0.361245,-1.715913 0,-1.501424 0.756357,-2.314225 0.756356,-0.812801 2.05458,-0.812801 0.824089,0 1.444979,0.372534 0.632178,0.361245 0.982134,1.061157 0.361245,0.688623 0.361245,1.693335 z m -4.572005,0 q 0,1.072445 0.41769,1.704624 0.428978,0.620889 1.354668,0.620889 0.914401,0 1.343379,-0.620889 0.428978,-0.632179 0.428978,-1.704624 0,-1.072446 -0.428978,-1.682046 -0.428978,-0.609601 -1.354668,-0.609601 -0.92569,0 -1.343379,0.609601 -0.41769,0.6096 -0.41769,1.682046 z"
           id="path4463" />
        <path
           d="m 28.186923,86.78685 -2.291647,-6.050851 h 1.061157 l 1.286934,3.567293 q 0.09031,0.248356 0.191912,0.553156 0.1016,0.3048 0.180622,0.587023 0.07902,0.270933 0.112889,0.462845 h 0.04516 q 0.04516,-0.191912 0.124178,-0.474134 0.09031,-0.282223 0.191911,-0.587023 0.112889,-0.3048 0.191911,-0.541867 l 1.286935,-3.567293 h 1.061156 l -2.302935,6.050851 z"
           id="path4465" />
        <path
           d="m 33.097588,78.46693 q 0.225778,0 0.395111,0.158045 0.180623,0.146756 0.180623,0.474134 0,0.316089 -0.180623,0.474134 -0.169333,0.158044 -0.395111,0.158044 -0.248356,0 -0.41769,-0.158044 -0.169333,-0.158045 -0.169333,-0.474134 0,-0.327378 0.169333,-0.474134 0.169334,-0.158045 0.41769,-0.158045 z m 0.485422,2.269069 v 6.050851 h -0.993423 v -6.050851 z"
           id="path4467" />
        <path
           d="m 42.13999,80.62311 q 1.02729,0 1.53529,0.530579 0.508001,0.519289 0.508001,1.693335 v 3.939826 h -0.982135 v -3.894671 q 0,-1.43369 -1.23049,-1.43369 -0.880534,0 -1.264357,0.508001 -0.372533,0.508 -0.372533,1.478845 v 3.341515 h -0.982135 v -3.894671 q 0,-1.43369 -1.241779,-1.43369 -0.914401,0 -1.264357,0.564445 -0.349956,0.564445 -0.349956,1.625602 v 3.138314 h -0.993423 v -6.050851 h 0.801512 l 0.146756,0.82409 h 0.05644 q 0.282223,-0.474134 0.756357,-0.699912 0.485422,-0.237067 1.02729,-0.237067 1.422401,0 1.851379,1.016001 h 0.05644 q 0.3048,-0.519289 0.824089,-0.767645 0.530579,-0.248356 1.117602,-0.248356 z"
           id="path4469" />
        <path
           d="m 48.394035,80.62311 q 0.778934,0 1.33209,0.338667 0.564445,0.338667 0.857957,0.959557 0.3048,0.609601 0.3048,1.43369 v 0.598312 h -4.143026 q 0.02258,1.02729 0.519289,1.569157 0.508001,0.530578 1.411113,0.530578 0.575734,0 1.016001,-0.1016 0.451556,-0.112889 0.92569,-0.316089 v 0.869245 q -0.462845,0.203201 -0.914401,0.293512 -0.451556,0.1016 -1.072446,0.1016 -0.857956,0 -1.524001,-0.349956 -0.654757,-0.349956 -1.02729,-1.038579 -0.361245,-0.699912 -0.361245,-1.704624 0,-0.993423 0.327378,-1.704624 0.338667,-0.7112 0.936979,-1.095023 0.6096,-0.383823 1.411112,-0.383823 z m -0.01129,0.812801 q -0.7112,0 -1.12889,0.462845 -0.4064,0.451556 -0.485422,1.264357 h 3.081869 q -0.01129,-0.767645 -0.361244,-1.241779 -0.349956,-0.485423 -1.106313,-0.485423 z"
           id="path4471" />
        <path
           d="m 55.336697,80.62311 q 1.083735,0 1.636891,0.530579 0.553156,0.519289 0.553156,1.693335 V 86.78685 H 56.54461 v -3.872093 q 0,-1.456268 -1.354668,-1.456268 -1.004713,0 -1.388535,0.564445 -0.383823,0.564445 -0.383823,1.625602 v 3.138314 h -0.993423 v -6.050851 h 0.801512 l 0.146756,0.82409 h 0.05644 q 0.293511,-0.474134 0.812801,-0.699912 0.519289,-0.237067 1.095023,-0.237067 z"
           id="path4473" />
        <path
           d="m 61.421418,86.086938 q 0.225778,0 0.462844,-0.03387 0.237067,-0.04516 0.383823,-0.09031 v 0.756357 q -0.158045,0.07902 -0.451556,0.124177 -0.293511,0.05644 -0.564445,0.05644 -0.474134,0 -0.880534,-0.158045 -0.395112,-0.169333 -0.643468,-0.575734 -0.248355,-0.4064 -0.248355,-1.140178 V 81.503645 H 58.62177 v -0.474134 l 0.869246,-0.395112 0.395111,-1.286934 h 0.587023 v 1.388534 h 1.749779 v 0.767646 H 60.47315 v 3.499559 q 0,0.553156 0.259645,0.824089 0.270933,0.259645 0.688623,0.259645 z"
           id="path4475" />
        <path
           d="m 68.736623,83.750136 q 0,1.501424 -0.767646,2.325513 -0.756356,0.82409 -2.05458,0.82409 -0.801511,0 -1.43369,-0.361245 -0.620889,-0.372534 -0.982134,-1.072445 -0.361245,-0.711201 -0.361245,-1.715913 0,-1.501424 0.756356,-2.314225 0.756357,-0.812801 2.05458,-0.812801 0.82409,0 1.444979,0.372534 0.632179,0.361245 0.982135,1.061157 0.361245,0.688623 0.361245,1.693335 z m -4.572005,0 q 0,1.072445 0.417689,1.704624 0.428978,0.620889 1.354668,0.620889 0.914401,0 1.343379,-0.620889 0.428979,-0.632179 0.428979,-1.704624 0,-1.072446 -0.428979,-1.682046 -0.428978,-0.609601 -1.354668,-0.609601 -0.925689,0 -1.343379,0.609601 -0.417689,0.6096 -0.417689,1.682046 z"
           id="path4477" />
        <path
           d="m 79.506231,83.942047 q 0,0.835379 -0.338667,1.512713 -0.338667,0.666045 -1.038579,1.061156 -0.688623,0.383823 -1.761068,0.383823 -1.501424,0 -2.291647,-0.812801 -0.778934,-0.82409 -0.778934,-2.167469 v -5.192894 h 1.016001 v 5.226761 q 0,0.982134 0.519289,1.524002 0.530579,0.541867 1.591735,0.541867 1.095024,0 1.580446,-0.575734 0.496712,-0.587023 0.496712,-1.501424 v -5.215472 h 1.004712 z"
           id="path4479" />
        <path
           d="m 84.405629,80.62311 q 1.083734,0 1.63689,0.530579 0.553156,0.519289 0.553156,1.693335 v 3.939826 h -0.982134 v -3.872093 q 0,-1.456268 -1.354668,-1.456268 -1.004712,0 -1.388535,0.564445 -0.383822,0.564445 -0.383822,1.625602 v 3.138314 h -0.993424 v -6.050851 h 0.801512 l 0.146756,0.82409 h 0.05644 q 0.293511,-0.474134 0.8128,-0.699912 0.51929,-0.237067 1.095024,-0.237067 z"
           id="path4481" />
        <path
           d="m 88.977633,78.46693 q 0.225778,0 0.395111,0.158045 0.180623,0.146756 0.180623,0.474134 0,0.316089 -0.180623,0.474134 -0.169333,0.158044 -0.395111,0.158044 -0.248356,0 -0.41769,-0.158044 -0.169333,-0.158045 -0.169333,-0.474134 0,-0.327378 0.169333,-0.474134 0.169334,-0.158045 0.41769,-0.158045 z m 0.485422,2.269069 v 6.050851 h -0.993423 v -6.050851 z"
           id="path4483" />
        <path
           d="M 94.170519,81.503645 H 92.646518 V 86.78685 H 91.653095 V 81.503645 H 90.591938 V 81.0408 l 1.061157,-0.338667 v -0.349956 q 0,-1.174046 0.519289,-1.682046 0.51929,-0.51929 1.444979,-0.51929 0.361245,0 0.654757,0.06773 0.3048,0.05644 0.519289,0.135466 l -0.259645,0.778935 q -0.180622,-0.05644 -0.417689,-0.112889 -0.237067,-0.05645 -0.485423,-0.05645 -0.496711,0 -0.745067,0.338667 -0.237067,0.327378 -0.237067,1.038579 v 0.395111 h 1.524001 z"
           id="path4485" />
        <path
           d="m 100.52617,83.750136 q 0,1.501424 -0.767649,2.325513 -0.756357,0.82409 -2.05458,0.82409 -0.801512,0 -1.433691,-0.361245 -0.620889,-0.372534 -0.982134,-1.072445 -0.361245,-0.711201 -0.361245,-1.715913 0,-1.501424 0.756356,-2.314225 0.756357,-0.812801 2.05458,-0.812801 0.82409,0 1.44498,0.372534 0.632178,0.361245 0.982133,1.061157 0.36125,0.688623 0.36125,1.693335 z m -4.572009,0 q 0,1.072445 0.417689,1.704624 0.428979,0.620889 1.354668,0.620889 0.914401,0 1.34338,-0.620889 0.428978,-0.632179 0.428978,-1.704624 0,-1.072446 -0.428978,-1.682046 -0.428979,-0.609601 -1.354668,-0.609601 -0.92569,0 -1.34338,0.609601 -0.417689,0.6096 -0.417689,1.682046 z"
           id="path4487" />
        <path
           d="m 104.91754,80.62311 q 0.16934,0 0.36125,0.02258 0.2032,0.01129 0.34995,0.04516 l -0.12417,0.914401 q -0.14676,-0.03387 -0.32738,-0.05644 -0.16933,-0.02258 -0.32738,-0.02258 -0.46284,0 -0.86924,0.259645 -0.40641,0.248356 -0.65476,0.711201 -0.23707,0.451556 -0.23707,1.061156 v 3.228626 h -0.99342 v -6.050851 h 0.8128 l 0.11289,1.106313 h 0.0451 q 0.29352,-0.496712 0.75636,-0.857957 0.46285,-0.361245 1.09502,-0.361245 z"
           id="path4489" />
        <path
           d="m 113.39551,80.62311 q 1.02729,0 1.53529,0.530579 0.508,0.519289 0.508,1.693335 v 3.939826 h -0.98214 v -3.894671 q 0,-1.43369 -1.23049,-1.43369 -0.88053,0 -1.26435,0.508001 -0.37254,0.508 -0.37254,1.478845 v 3.341515 h -0.98213 v -3.894671 q 0,-1.43369 -1.24178,-1.43369 -0.9144,0 -1.26436,0.564445 -0.34995,0.564445 -0.34995,1.625602 v 3.138314 h -0.99343 v -6.050851 h 0.80152 l 0.14675,0.82409 h 0.0564 q 0.28222,-0.474134 0.75635,-0.699912 0.48543,-0.237067 1.02729,-0.237067 1.4224,0 1.85138,1.016001 h 0.0564 q 0.3048,-0.519289 0.82409,-0.767645 0.53057,-0.248356 1.1176,-0.248356 z"
           id="path4491" />
        <path
           d="m 119.64955,80.62311 q 0.77894,0 1.33209,0.338667 0.56445,0.338667 0.85796,0.959557 0.3048,0.609601 0.3048,1.43369 v 0.598312 h -4.14303 q 0.0226,1.02729 0.51929,1.569157 0.508,0.530578 1.41111,0.530578 0.57574,0 1.016,-0.1016 0.45156,-0.112889 0.92569,-0.316089 v 0.869245 q -0.46284,0.203201 -0.9144,0.293512 -0.45155,0.1016 -1.07244,0.1016 -0.85796,0 -1.524,-0.349956 -0.65476,-0.349956 -1.02729,-1.038579 -0.36125,-0.699912 -0.36125,-1.704624 0,-0.993423 0.32738,-1.704624 0.33867,-0.7112 0.93698,-1.095023 0.6096,-0.383823 1.41111,-0.383823 z m -0.0113,0.812801 q -0.7112,0 -1.12889,0.462845 -0.4064,0.451556 -0.48542,1.264357 h 3.08187 q -0.0113,-0.767645 -0.36125,-1.241779 -0.34995,-0.485423 -1.10631,-0.485423 z"
           id="path4493" />
      </g>
    </g>
  </g>
</svg>
